# xmcd CD database file
#
# Track frame offsets:
#	151
#	10339
#	30898
#	45916
#	64595
#	78496
#	95673
#	109972
#	122782
#	135480
#	153674
#	178341
#	199279
#	217682
#
# Disc length: 3149 seconds
#
# Revision: 0
# Processed by: cddbd v1.5.2PL0 Copyright (c) Steve Scherf et al.
# Submitted via: CDex 1.51
#
DISCID=b80c4b0e
DTITLE=Alisa Jones - Celtic Dreams
DYEAR=2006
DGENRE=New Age
TTITLE0=Wind That Shakes the Barley
TTITLE1=Citi na gCummin
TTITLE2=The Parting Glass
TTITLE3=Salley Garden
TTITLE4=Rollin Down the Hill
TTITLE5=What Would You Do Love
TTITLE6=Rights of Man
TTITLE7=The Gaelic Farmer
TTITLE8=The Road to Lizdonvarna
TTITLE9=The River Shannon
TTITLE10=Planxty Irwin
TTITLE11=The Humors of Tully Grine
TTITLE12=Flow Gently Sweet Afron
TTITLE13=The Lark in the Clear Air
EXTD=YEAR: 2006
EXTT0=
EXTT1=
EXTT2=
EXTT3=
EXTT4=
EXTT5=
EXTT6=
EXTT7=
EXTT8=
EXTT9=
EXTT10=
EXTT11=
EXTT12=
EXTT13=
PLAYORDER=
